<mxfile host="app.diagrams.net" agent="Mozilla/5.0 (Macintosh; Intel Mac OS X 10_15_7) AppleWebKit/537.36 (KHTML, like Gecko) Chrome/133.0.0.0 Safari/537.36" version="26.0.11">
  <diagram name="Page-1" id="9qnPavN-ga0ZZehjGef9">
    <mxGraphModel dx="4261" dy="2089" grid="1" gridSize="10" guides="1" tooltips="1" connect="1" arrows="1" fold="1" page="1" pageScale="1" pageWidth="850" pageHeight="1100" math="0" shadow="0">
      <root>
        <mxCell id="0" />
        <mxCell id="1" parent="0" />
        <mxCell id="4K_5-owoXZHzl4sAPCsq-94" value="" style="rounded=1;whiteSpace=wrap;html=1;fillColor=none;" vertex="1" parent="1">
          <mxGeometry x="1590" y="560" width="470" height="260" as="geometry" />
        </mxCell>
        <mxCell id="4K_5-owoXZHzl4sAPCsq-67" value="" style="rounded=1;whiteSpace=wrap;html=1;fillColor=none;movable=0;resizable=0;rotatable=0;deletable=0;editable=0;locked=1;connectable=0;" vertex="1" parent="1">
          <mxGeometry x="100" y="450" width="1090" height="414" as="geometry" />
        </mxCell>
        <mxCell id="4K_5-owoXZHzl4sAPCsq-46" value="" style="rounded=1;whiteSpace=wrap;html=1;fillColor=none;movable=1;resizable=1;rotatable=1;deletable=1;editable=1;locked=0;connectable=1;" vertex="1" parent="1">
          <mxGeometry x="1590" y="50" width="1000" height="470" as="geometry" />
        </mxCell>
        <mxCell id="4K_5-owoXZHzl4sAPCsq-14" value="" style="rounded=1;whiteSpace=wrap;html=1;fillColor=none;movable=1;resizable=1;rotatable=1;deletable=1;editable=1;locked=0;connectable=1;" vertex="1" parent="1">
          <mxGeometry x="100" y="50" width="1230" height="350" as="geometry" />
        </mxCell>
        <mxCell id="4K_5-owoXZHzl4sAPCsq-1" value="Contacts API Gateway" style="sketch=0;points=[[0,0,0],[0.25,0,0],[0.5,0,0],[0.75,0,0],[1,0,0],[0,1,0],[0.25,1,0],[0.5,1,0],[0.75,1,0],[1,1,0],[0,0.25,0],[0,0.5,0],[0,0.75,0],[1,0.25,0],[1,0.5,0],[1,0.75,0]];outlineConnect=0;fontColor=#232F3E;fillColor=#8C4FFF;strokeColor=#ffffff;dashed=0;verticalLabelPosition=bottom;verticalAlign=top;align=center;html=1;fontSize=12;fontStyle=0;aspect=fixed;shape=mxgraph.aws4.resourceIcon;resIcon=mxgraph.aws4.api_gateway;" vertex="1" parent="1">
          <mxGeometry x="160" y="150" width="78" height="78" as="geometry" />
        </mxCell>
        <mxCell id="4K_5-owoXZHzl4sAPCsq-2" value="Ingestion Queue" style="sketch=0;points=[[0,0,0],[0.25,0,0],[0.5,0,0],[0.75,0,0],[1,0,0],[0,1,0],[0.25,1,0],[0.5,1,0],[0.75,1,0],[1,1,0],[0,0.25,0],[0,0.5,0],[0,0.75,0],[1,0.25,0],[1,0.5,0],[1,0.75,0]];outlineConnect=0;fontColor=#232F3E;fillColor=#E7157B;strokeColor=#ffffff;dashed=0;verticalLabelPosition=bottom;verticalAlign=top;align=center;html=1;fontSize=12;fontStyle=0;aspect=fixed;shape=mxgraph.aws4.resourceIcon;resIcon=mxgraph.aws4.sqs;" vertex="1" parent="1">
          <mxGeometry x="347" y="150" width="78" height="78" as="geometry" />
        </mxCell>
        <mxCell id="4K_5-owoXZHzl4sAPCsq-3" style="edgeStyle=orthogonalEdgeStyle;rounded=0;orthogonalLoop=1;jettySize=auto;html=1;entryX=0;entryY=0.5;entryDx=0;entryDy=0;entryPerimeter=0;" edge="1" parent="1" source="4K_5-owoXZHzl4sAPCsq-1" target="4K_5-owoXZHzl4sAPCsq-2">
          <mxGeometry relative="1" as="geometry" />
        </mxCell>
        <mxCell id="4K_5-owoXZHzl4sAPCsq-4" value="ProcessContacts" style="sketch=0;points=[[0,0,0],[0.25,0,0],[0.5,0,0],[0.75,0,0],[1,0,0],[0,1,0],[0.25,1,0],[0.5,1,0],[0.75,1,0],[1,1,0],[0,0.25,0],[0,0.5,0],[0,0.75,0],[1,0.25,0],[1,0.5,0],[1,0.75,0]];outlineConnect=0;fontColor=#232F3E;fillColor=#ED7100;strokeColor=#ffffff;dashed=0;verticalLabelPosition=bottom;verticalAlign=top;align=center;html=1;fontSize=12;fontStyle=0;aspect=fixed;shape=mxgraph.aws4.resourceIcon;resIcon=mxgraph.aws4.lambda;" vertex="1" parent="1">
          <mxGeometry x="520" y="150" width="78" height="78" as="geometry" />
        </mxCell>
        <mxCell id="4K_5-owoXZHzl4sAPCsq-5" style="edgeStyle=orthogonalEdgeStyle;rounded=0;orthogonalLoop=1;jettySize=auto;html=1;entryX=0;entryY=0.5;entryDx=0;entryDy=0;entryPerimeter=0;" edge="1" parent="1" source="4K_5-owoXZHzl4sAPCsq-2" target="4K_5-owoXZHzl4sAPCsq-4">
          <mxGeometry relative="1" as="geometry" />
        </mxCell>
        <mxCell id="4K_5-owoXZHzl4sAPCsq-9" style="edgeStyle=orthogonalEdgeStyle;rounded=0;orthogonalLoop=1;jettySize=auto;html=1;" edge="1" parent="1" source="4K_5-owoXZHzl4sAPCsq-6" target="4K_5-owoXZHzl4sAPCsq-8">
          <mxGeometry relative="1" as="geometry" />
        </mxCell>
        <mxCell id="4K_5-owoXZHzl4sAPCsq-6" value="Contracts Table" style="sketch=0;points=[[0,0,0],[0.25,0,0],[0.5,0,0],[0.75,0,0],[1,0,0],[0,1,0],[0.25,1,0],[0.5,1,0],[0.75,1,0],[1,1,0],[0,0.25,0],[0,0.5,0],[0,0.75,0],[1,0.25,0],[1,0.5,0],[1,0.75,0]];outlineConnect=0;fontColor=#232F3E;fillColor=#C925D1;strokeColor=#ffffff;dashed=0;verticalLabelPosition=bottom;verticalAlign=top;align=center;html=1;fontSize=12;fontStyle=0;aspect=fixed;shape=mxgraph.aws4.resourceIcon;resIcon=mxgraph.aws4.dynamodb;" vertex="1" parent="1">
          <mxGeometry x="690" y="150" width="78" height="78" as="geometry" />
        </mxCell>
        <mxCell id="4K_5-owoXZHzl4sAPCsq-7" style="edgeStyle=orthogonalEdgeStyle;rounded=0;orthogonalLoop=1;jettySize=auto;html=1;entryX=0;entryY=0.5;entryDx=0;entryDy=0;entryPerimeter=0;" edge="1" parent="1" source="4K_5-owoXZHzl4sAPCsq-4" target="4K_5-owoXZHzl4sAPCsq-6">
          <mxGeometry relative="1" as="geometry" />
        </mxCell>
        <mxCell id="4K_5-owoXZHzl4sAPCsq-11" style="edgeStyle=orthogonalEdgeStyle;rounded=0;orthogonalLoop=1;jettySize=auto;html=1;" edge="1" parent="1" source="4K_5-owoXZHzl4sAPCsq-8" target="4K_5-owoXZHzl4sAPCsq-10">
          <mxGeometry relative="1" as="geometry" />
        </mxCell>
        <mxCell id="4K_5-owoXZHzl4sAPCsq-8" value="Streams" style="sketch=0;outlineConnect=0;fontColor=#232F3E;gradientColor=none;fillColor=#C925D1;strokeColor=none;dashed=0;verticalLabelPosition=bottom;verticalAlign=top;align=center;html=1;fontSize=12;fontStyle=0;aspect=fixed;pointerEvents=1;shape=mxgraph.aws4.dynamodb_stream;" vertex="1" parent="1">
          <mxGeometry x="830" y="150" width="78" height="78" as="geometry" />
        </mxCell>
        <mxCell id="4K_5-owoXZHzl4sAPCsq-13" style="edgeStyle=orthogonalEdgeStyle;rounded=0;orthogonalLoop=1;jettySize=auto;html=1;" edge="1" parent="1" source="4K_5-owoXZHzl4sAPCsq-10" target="4K_5-owoXZHzl4sAPCsq-12">
          <mxGeometry relative="1" as="geometry" />
        </mxCell>
        <mxCell id="4K_5-owoXZHzl4sAPCsq-10" value="Stream To Event Pipe" style="sketch=0;outlineConnect=0;fontColor=#232F3E;gradientColor=none;fillColor=#E7157B;strokeColor=none;dashed=0;verticalLabelPosition=bottom;verticalAlign=top;align=center;html=1;fontSize=12;fontStyle=0;aspect=fixed;pointerEvents=1;shape=mxgraph.aws4.eventbridge_pipes;" vertex="1" parent="1">
          <mxGeometry x="990" y="150" width="78" height="78" as="geometry" />
        </mxCell>
        <mxCell id="4K_5-owoXZHzl4sAPCsq-50" style="edgeStyle=orthogonalEdgeStyle;rounded=0;orthogonalLoop=1;jettySize=auto;html=1;" edge="1" parent="1" source="4K_5-owoXZHzl4sAPCsq-12" target="4K_5-owoXZHzl4sAPCsq-15">
          <mxGeometry relative="1" as="geometry" />
        </mxCell>
        <mxCell id="4K_5-owoXZHzl4sAPCsq-51" value="Event: ContractStatusChanged" style="edgeLabel;html=1;align=center;verticalAlign=middle;resizable=0;points=[];" vertex="1" connectable="0" parent="4K_5-owoXZHzl4sAPCsq-50">
          <mxGeometry x="-0.1787" y="3" relative="1" as="geometry">
            <mxPoint as="offset" />
          </mxGeometry>
        </mxCell>
        <mxCell id="4K_5-owoXZHzl4sAPCsq-12" value="Contracts Event Bus" style="sketch=0;outlineConnect=0;fontColor=#232F3E;gradientColor=none;fillColor=#E7157B;strokeColor=none;dashed=0;verticalLabelPosition=bottom;verticalAlign=top;align=center;html=1;fontSize=12;fontStyle=0;aspect=fixed;pointerEvents=1;shape=mxgraph.aws4.eventbridge_custom_event_bus_resource;" vertex="1" parent="1">
          <mxGeometry x="1210" y="154" width="78" height="69" as="geometry" />
        </mxCell>
        <mxCell id="4K_5-owoXZHzl4sAPCsq-76" style="rounded=0;orthogonalLoop=1;jettySize=auto;html=1;" edge="1" parent="1" source="4K_5-owoXZHzl4sAPCsq-15" target="4K_5-owoXZHzl4sAPCsq-63">
          <mxGeometry relative="1" as="geometry">
            <mxPoint x="1656" y="233.07894736842104" as="sourcePoint" />
            <mxPoint x="1164" y="599.9210526315792" as="targetPoint" />
            <Array as="points">
              <mxPoint x="1650" y="240" />
              <mxPoint x="1170" y="600" />
            </Array>
          </mxGeometry>
        </mxCell>
        <mxCell id="4K_5-owoXZHzl4sAPCsq-77" value="Event: PublicationEvaluationCompleted" style="edgeLabel;html=1;align=center;verticalAlign=middle;resizable=0;points=[];" vertex="1" connectable="0" parent="4K_5-owoXZHzl4sAPCsq-76">
          <mxGeometry x="0.4743" y="2" relative="1" as="geometry">
            <mxPoint x="148" y="-48" as="offset" />
          </mxGeometry>
        </mxCell>
        <mxCell id="4K_5-owoXZHzl4sAPCsq-15" value="Properties Event Bus" style="sketch=0;outlineConnect=0;fontColor=#232F3E;gradientColor=none;fillColor=#E7157B;strokeColor=none;dashed=0;verticalLabelPosition=top;verticalAlign=bottom;align=center;html=1;fontSize=12;fontStyle=0;aspect=fixed;pointerEvents=1;shape=mxgraph.aws4.eventbridge_custom_event_bus_resource;labelPosition=center;" vertex="1" parent="1">
          <mxGeometry x="1650" y="153.5" width="78" height="69" as="geometry" />
        </mxCell>
        <mxCell id="4K_5-owoXZHzl4sAPCsq-17" value="Contracts&amp;nbsp; Service" style="text;strokeColor=none;fillColor=none;html=1;fontSize=24;fontStyle=1;verticalAlign=middle;align=center;movable=0;resizable=0;rotatable=0;deletable=0;editable=0;locked=1;connectable=0;" vertex="1" parent="1">
          <mxGeometry x="190" y="70" width="100" height="40" as="geometry" />
        </mxCell>
        <mxCell id="4K_5-owoXZHzl4sAPCsq-21" style="edgeStyle=orthogonalEdgeStyle;rounded=0;orthogonalLoop=1;jettySize=auto;html=1;" edge="1" parent="1" source="4K_5-owoXZHzl4sAPCsq-18" target="4K_5-owoXZHzl4sAPCsq-20">
          <mxGeometry relative="1" as="geometry" />
        </mxCell>
        <mxCell id="4K_5-owoXZHzl4sAPCsq-18" value="ContractStatusChanged Handler" style="sketch=0;points=[[0,0,0],[0.25,0,0],[0.5,0,0],[0.75,0,0],[1,0,0],[0,1,0],[0.25,1,0],[0.5,1,0],[0.75,1,0],[1,1,0],[0,0.25,0],[0,0.5,0],[0,0.75,0],[1,0.25,0],[1,0.5,0],[1,0.75,0]];outlineConnect=0;fontColor=#232F3E;fillColor=#ED7100;strokeColor=#ffffff;dashed=0;verticalLabelPosition=bottom;verticalAlign=top;align=center;html=1;fontSize=12;fontStyle=0;aspect=fixed;shape=mxgraph.aws4.resourceIcon;resIcon=mxgraph.aws4.lambda;" vertex="1" parent="1">
          <mxGeometry x="1932" y="149" width="78" height="78" as="geometry" />
        </mxCell>
        <mxCell id="4K_5-owoXZHzl4sAPCsq-19" style="edgeStyle=orthogonalEdgeStyle;rounded=0;orthogonalLoop=1;jettySize=auto;html=1;entryX=0;entryY=0.5;entryDx=0;entryDy=0;entryPerimeter=0;" edge="1" parent="1" source="4K_5-owoXZHzl4sAPCsq-15" target="4K_5-owoXZHzl4sAPCsq-18">
          <mxGeometry relative="1" as="geometry" />
        </mxCell>
        <mxCell id="4K_5-owoXZHzl4sAPCsq-22" value="Event: ContractStatusChanged" style="edgeLabel;html=1;align=center;verticalAlign=middle;resizable=0;points=[];" vertex="1" connectable="0" parent="4K_5-owoXZHzl4sAPCsq-19">
          <mxGeometry x="-0.1344" y="1" relative="1" as="geometry">
            <mxPoint as="offset" />
          </mxGeometry>
        </mxCell>
        <mxCell id="4K_5-owoXZHzl4sAPCsq-31" style="edgeStyle=orthogonalEdgeStyle;rounded=0;orthogonalLoop=1;jettySize=auto;html=1;" edge="1" parent="1" source="4K_5-owoXZHzl4sAPCsq-20" target="4K_5-owoXZHzl4sAPCsq-30">
          <mxGeometry relative="1" as="geometry" />
        </mxCell>
        <mxCell id="4K_5-owoXZHzl4sAPCsq-20" value="Contract Status Table" style="sketch=0;points=[[0,0,0],[0.25,0,0],[0.5,0,0],[0.75,0,0],[1,0,0],[0,1,0],[0.25,1,0],[0.5,1,0],[0.75,1,0],[1,1,0],[0,0.25,0],[0,0.5,0],[0,0.75,0],[1,0.25,0],[1,0.5,0],[1,0.75,0]];outlineConnect=0;fontColor=#232F3E;fillColor=#C925D1;strokeColor=#ffffff;dashed=0;verticalLabelPosition=top;verticalAlign=bottom;align=center;html=1;fontSize=12;fontStyle=0;aspect=fixed;shape=mxgraph.aws4.resourceIcon;resIcon=mxgraph.aws4.dynamodb;labelPosition=center;" vertex="1" parent="1">
          <mxGeometry x="2160" y="150" width="78" height="78" as="geometry" />
        </mxCell>
        <mxCell id="4K_5-owoXZHzl4sAPCsq-42" style="edgeStyle=orthogonalEdgeStyle;rounded=0;orthogonalLoop=1;jettySize=auto;html=1;" edge="1" parent="1" source="4K_5-owoXZHzl4sAPCsq-23" target="4K_5-owoXZHzl4sAPCsq-15">
          <mxGeometry relative="1" as="geometry">
            <Array as="points">
              <mxPoint x="1680" y="368" />
            </Array>
          </mxGeometry>
        </mxCell>
        <mxCell id="4K_5-owoXZHzl4sAPCsq-43" value="Event:&amp;nbsp;PublicationEvaluationCompleted" style="edgeLabel;html=1;align=center;verticalAlign=middle;resizable=0;points=[];" vertex="1" connectable="0" parent="4K_5-owoXZHzl4sAPCsq-42">
          <mxGeometry x="-0.2511" y="-2" relative="1" as="geometry">
            <mxPoint x="48" as="offset" />
          </mxGeometry>
        </mxCell>
        <mxCell id="4K_5-owoXZHzl4sAPCsq-23" value="Properites Approval State Machine" style="sketch=0;points=[[0,0,0],[0.25,0,0],[0.5,0,0],[0.75,0,0],[1,0,0],[0,1,0],[0.25,1,0],[0.5,1,0],[0.75,1,0],[1,1,0],[0,0.25,0],[0,0.5,0],[0,0.75,0],[1,0.25,0],[1,0.5,0],[1,0.75,0]];outlineConnect=0;fontColor=#232F3E;fillColor=#E7157B;strokeColor=#ffffff;dashed=0;verticalLabelPosition=top;verticalAlign=bottom;align=center;html=1;fontSize=12;fontStyle=0;aspect=fixed;shape=mxgraph.aws4.resourceIcon;resIcon=mxgraph.aws4.step_functions;labelPosition=center;" vertex="1" parent="1">
          <mxGeometry x="1932" y="329" width="78" height="78" as="geometry" />
        </mxCell>
        <mxCell id="4K_5-owoXZHzl4sAPCsq-24" style="edgeStyle=orthogonalEdgeStyle;rounded=0;orthogonalLoop=1;jettySize=auto;html=1;" edge="1" parent="1" source="4K_5-owoXZHzl4sAPCsq-15" target="4K_5-owoXZHzl4sAPCsq-23">
          <mxGeometry relative="1" as="geometry">
            <Array as="points">
              <mxPoint x="1700" y="340" />
            </Array>
          </mxGeometry>
        </mxCell>
        <mxCell id="4K_5-owoXZHzl4sAPCsq-26" value="Event: PublicationApprovalRequest&amp;nbsp;" style="edgeLabel;html=1;align=center;verticalAlign=middle;resizable=0;points=[];" vertex="1" connectable="0" parent="4K_5-owoXZHzl4sAPCsq-24">
          <mxGeometry x="0.3864" relative="1" as="geometry">
            <mxPoint as="offset" />
          </mxGeometry>
        </mxCell>
        <mxCell id="4K_5-owoXZHzl4sAPCsq-30" value="DynamoDB Streams" style="sketch=0;outlineConnect=0;fontColor=#232F3E;gradientColor=none;fillColor=#C925D1;strokeColor=none;dashed=0;verticalLabelPosition=bottom;verticalAlign=top;align=center;html=1;fontSize=12;fontStyle=0;aspect=fixed;pointerEvents=1;shape=mxgraph.aws4.dynamodb_stream;" vertex="1" parent="1">
          <mxGeometry x="2340" y="150" width="78" height="78" as="geometry" />
        </mxCell>
        <mxCell id="4K_5-owoXZHzl4sAPCsq-32" value="ApprovalSync" style="sketch=0;points=[[0,0,0],[0.25,0,0],[0.5,0,0],[0.75,0,0],[1,0,0],[0,1,0],[0.25,1,0],[0.5,1,0],[0.75,1,0],[1,1,0],[0,0.25,0],[0,0.5,0],[0,0.75,0],[1,0.25,0],[1,0.5,0],[1,0.75,0]];outlineConnect=0;fontColor=#232F3E;fillColor=#ED7100;strokeColor=#ffffff;dashed=0;verticalLabelPosition=middle;verticalAlign=middle;align=left;html=1;fontSize=12;fontStyle=0;aspect=fixed;shape=mxgraph.aws4.resourceIcon;resIcon=mxgraph.aws4.lambda;labelPosition=right;" vertex="1" parent="1">
          <mxGeometry x="2430" y="329" width="78" height="78" as="geometry" />
        </mxCell>
        <mxCell id="4K_5-owoXZHzl4sAPCsq-33" style="edgeStyle=orthogonalEdgeStyle;rounded=0;orthogonalLoop=1;jettySize=auto;html=1;entryX=0.5;entryY=0;entryDx=0;entryDy=0;entryPerimeter=0;" edge="1" parent="1" source="4K_5-owoXZHzl4sAPCsq-30" target="4K_5-owoXZHzl4sAPCsq-32">
          <mxGeometry relative="1" as="geometry">
            <Array as="points">
              <mxPoint x="2470" y="189" />
              <mxPoint x="2470" y="319" />
            </Array>
          </mxGeometry>
        </mxCell>
        <mxCell id="4K_5-owoXZHzl4sAPCsq-37" style="edgeStyle=orthogonalEdgeStyle;rounded=0;orthogonalLoop=1;jettySize=auto;html=1;" edge="1" parent="1" source="4K_5-owoXZHzl4sAPCsq-34">
          <mxGeometry relative="1" as="geometry">
            <mxPoint x="2200" y="229" as="targetPoint" />
            <Array as="points">
              <mxPoint x="2200" y="368" />
            </Array>
          </mxGeometry>
        </mxCell>
        <mxCell id="4K_5-owoXZHzl4sAPCsq-34" value="ContractExistsCheck" style="sketch=0;points=[[0,0,0],[0.25,0,0],[0.5,0,0],[0.75,0,0],[1,0,0],[0,1,0],[0.25,1,0],[0.5,1,0],[0.75,1,0],[1,1,0],[0,0.25,0],[0,0.5,0],[0,0.75,0],[1,0.25,0],[1,0.5,0],[1,0.75,0]];outlineConnect=0;fontColor=#232F3E;fillColor=#ED7100;strokeColor=#ffffff;dashed=0;verticalLabelPosition=bottom;verticalAlign=top;align=center;html=1;fontSize=12;fontStyle=0;aspect=fixed;shape=mxgraph.aws4.resourceIcon;resIcon=mxgraph.aws4.lambda;" vertex="1" parent="1">
          <mxGeometry x="2090" y="329" width="78" height="78" as="geometry" />
        </mxCell>
        <mxCell id="4K_5-owoXZHzl4sAPCsq-35" value="WaitForContractApproval" style="sketch=0;points=[[0,0,0],[0.25,0,0],[0.5,0,0],[0.75,0,0],[1,0,0],[0,1,0],[0.25,1,0],[0.5,1,0],[0.75,1,0],[1,1,0],[0,0.25,0],[0,0.5,0],[0,0.75,0],[1,0.25,0],[1,0.5,0],[1,0.75,0]];outlineConnect=0;fontColor=#232F3E;fillColor=#ED7100;strokeColor=#ffffff;dashed=0;verticalLabelPosition=top;verticalAlign=bottom;align=center;html=1;fontSize=12;fontStyle=0;aspect=fixed;shape=mxgraph.aws4.resourceIcon;resIcon=mxgraph.aws4.lambda;labelPosition=center;" vertex="1" parent="1">
          <mxGeometry x="2258" y="329" width="78" height="78" as="geometry" />
        </mxCell>
        <mxCell id="4K_5-owoXZHzl4sAPCsq-36" style="edgeStyle=orthogonalEdgeStyle;rounded=0;orthogonalLoop=1;jettySize=auto;html=1;entryX=0;entryY=0.5;entryDx=0;entryDy=0;entryPerimeter=0;" edge="1" parent="1" source="4K_5-owoXZHzl4sAPCsq-23" target="4K_5-owoXZHzl4sAPCsq-34">
          <mxGeometry relative="1" as="geometry" />
        </mxCell>
        <mxCell id="4K_5-owoXZHzl4sAPCsq-39" style="edgeStyle=orthogonalEdgeStyle;rounded=0;orthogonalLoop=1;jettySize=auto;html=1;entryX=0.5;entryY=1;entryDx=0;entryDy=0;entryPerimeter=0;" edge="1" parent="1" source="4K_5-owoXZHzl4sAPCsq-32" target="4K_5-owoXZHzl4sAPCsq-23">
          <mxGeometry relative="1" as="geometry">
            <Array as="points">
              <mxPoint x="2470" y="490" />
              <mxPoint x="1971" y="490" />
            </Array>
          </mxGeometry>
        </mxCell>
        <mxCell id="4K_5-owoXZHzl4sAPCsq-98" value="SendTaskSuccess" style="edgeLabel;html=1;align=center;verticalAlign=middle;resizable=0;points=[];" vertex="1" connectable="0" parent="4K_5-owoXZHzl4sAPCsq-39">
          <mxGeometry x="0.0325" y="-3" relative="1" as="geometry">
            <mxPoint as="offset" />
          </mxGeometry>
        </mxCell>
        <mxCell id="4K_5-owoXZHzl4sAPCsq-40" style="edgeStyle=orthogonalEdgeStyle;rounded=0;orthogonalLoop=1;jettySize=auto;html=1;" edge="1" parent="1" source="4K_5-owoXZHzl4sAPCsq-23" target="4K_5-owoXZHzl4sAPCsq-35">
          <mxGeometry relative="1" as="geometry">
            <mxPoint x="2277" y="407" as="targetPoint" />
            <Array as="points">
              <mxPoint x="2050" y="368" />
              <mxPoint x="2050" y="451" />
              <mxPoint x="2300" y="451" />
            </Array>
          </mxGeometry>
        </mxCell>
        <mxCell id="4K_5-owoXZHzl4sAPCsq-41" style="edgeStyle=orthogonalEdgeStyle;rounded=0;orthogonalLoop=1;jettySize=auto;html=1;entryX=0.5;entryY=1;entryDx=0;entryDy=0;entryPerimeter=0;exitX=0;exitY=0.5;exitDx=0;exitDy=0;exitPerimeter=0;" edge="1" parent="1" source="4K_5-owoXZHzl4sAPCsq-35">
          <mxGeometry relative="1" as="geometry">
            <mxPoint x="2239" y="368.01694915254234" as="sourcePoint" />
            <mxPoint x="2200" y="228" as="targetPoint" />
            <Array as="points">
              <mxPoint x="2200" y="368" />
            </Array>
          </mxGeometry>
        </mxCell>
        <mxCell id="4K_5-owoXZHzl4sAPCsq-47" value="Properties Service" style="text;strokeColor=none;fillColor=none;html=1;fontSize=24;fontStyle=1;verticalAlign=middle;align=center;movable=0;resizable=0;rotatable=0;deletable=0;editable=0;locked=1;connectable=0;" vertex="1" parent="1">
          <mxGeometry x="1680" y="80" width="100" height="40" as="geometry" />
        </mxCell>
        <mxCell id="4K_5-owoXZHzl4sAPCsq-54" style="edgeStyle=orthogonalEdgeStyle;rounded=0;orthogonalLoop=1;jettySize=auto;html=1;" edge="1" parent="1" source="4K_5-owoXZHzl4sAPCsq-52" target="4K_5-owoXZHzl4sAPCsq-53">
          <mxGeometry relative="1" as="geometry" />
        </mxCell>
        <mxCell id="4K_5-owoXZHzl4sAPCsq-52" value="Web API Gateway" style="sketch=0;points=[[0,0,0],[0.25,0,0],[0.5,0,0],[0.75,0,0],[1,0,0],[0,1,0],[0.25,1,0],[0.5,1,0],[0.75,1,0],[1,1,0],[0,0.25,0],[0,0.5,0],[0,0.75,0],[1,0.25,0],[1,0.5,0],[1,0.75,0]];outlineConnect=0;fontColor=#232F3E;fillColor=#8C4FFF;strokeColor=#ffffff;dashed=0;verticalLabelPosition=bottom;verticalAlign=top;align=center;html=1;fontSize=12;fontStyle=0;aspect=fixed;shape=mxgraph.aws4.resourceIcon;resIcon=mxgraph.aws4.api_gateway;" vertex="1" parent="1">
          <mxGeometry x="161" y="574" width="78" height="78" as="geometry" />
        </mxCell>
        <mxCell id="4K_5-owoXZHzl4sAPCsq-53" value="Search Properties" style="sketch=0;points=[[0,0,0],[0.25,0,0],[0.5,0,0],[0.75,0,0],[1,0,0],[0,1,0],[0.25,1,0],[0.5,1,0],[0.75,1,0],[1,1,0],[0,0.25,0],[0,0.5,0],[0,0.75,0],[1,0.25,0],[1,0.5,0],[1,0.75,0]];outlineConnect=0;fontColor=#232F3E;fillColor=#ED7100;strokeColor=#ffffff;dashed=0;verticalLabelPosition=bottom;verticalAlign=top;align=center;html=1;fontSize=12;fontStyle=0;aspect=fixed;shape=mxgraph.aws4.resourceIcon;resIcon=mxgraph.aws4.lambda;" vertex="1" parent="1">
          <mxGeometry x="425" y="575" width="78" height="78" as="geometry" />
        </mxCell>
        <mxCell id="4K_5-owoXZHzl4sAPCsq-55" value="Properties Table" style="sketch=0;points=[[0,0,0],[0.25,0,0],[0.5,0,0],[0.75,0,0],[1,0,0],[0,1,0],[0.25,1,0],[0.5,1,0],[0.75,1,0],[1,1,0],[0,0.25,0],[0,0.5,0],[0,0.75,0],[1,0.25,0],[1,0.5,0],[1,0.75,0]];outlineConnect=0;fontColor=#232F3E;fillColor=#C925D1;strokeColor=#ffffff;dashed=0;verticalLabelPosition=top;verticalAlign=bottom;align=center;html=1;fontSize=12;fontStyle=0;aspect=fixed;shape=mxgraph.aws4.resourceIcon;resIcon=mxgraph.aws4.dynamodb;labelPosition=center;" vertex="1" parent="1">
          <mxGeometry x="609" y="574" width="78" height="78" as="geometry" />
        </mxCell>
        <mxCell id="4K_5-owoXZHzl4sAPCsq-56" style="edgeStyle=orthogonalEdgeStyle;rounded=0;orthogonalLoop=1;jettySize=auto;html=1;entryX=0;entryY=0.5;entryDx=0;entryDy=0;entryPerimeter=0;" edge="1" parent="1" source="4K_5-owoXZHzl4sAPCsq-53" target="4K_5-owoXZHzl4sAPCsq-55">
          <mxGeometry relative="1" as="geometry" />
        </mxCell>
        <mxCell id="4K_5-owoXZHzl4sAPCsq-60" style="edgeStyle=orthogonalEdgeStyle;rounded=0;orthogonalLoop=1;jettySize=auto;html=1;" edge="1" parent="1" source="4K_5-owoXZHzl4sAPCsq-57" target="4K_5-owoXZHzl4sAPCsq-59">
          <mxGeometry relative="1" as="geometry" />
        </mxCell>
        <mxCell id="4K_5-owoXZHzl4sAPCsq-57" value="Request Approval Queue" style="sketch=0;points=[[0,0,0],[0.25,0,0],[0.5,0,0],[0.75,0,0],[1,0,0],[0,1,0],[0.25,1,0],[0.5,1,0],[0.75,1,0],[1,1,0],[0,0.25,0],[0,0.5,0],[0,0.75,0],[1,0.25,0],[1,0.5,0],[1,0.75,0]];outlineConnect=0;fontColor=#232F3E;fillColor=#E7157B;strokeColor=#ffffff;dashed=0;verticalLabelPosition=bottom;verticalAlign=top;align=center;html=1;fontSize=12;fontStyle=0;aspect=fixed;shape=mxgraph.aws4.resourceIcon;resIcon=mxgraph.aws4.sqs;" vertex="1" parent="1">
          <mxGeometry x="425" y="734" width="78" height="78" as="geometry" />
        </mxCell>
        <mxCell id="4K_5-owoXZHzl4sAPCsq-58" style="edgeStyle=orthogonalEdgeStyle;rounded=0;orthogonalLoop=1;jettySize=auto;html=1;entryX=0;entryY=0.5;entryDx=0;entryDy=0;entryPerimeter=0;" edge="1" parent="1" source="4K_5-owoXZHzl4sAPCsq-52" target="4K_5-owoXZHzl4sAPCsq-57">
          <mxGeometry relative="1" as="geometry" />
        </mxCell>
        <mxCell id="4K_5-owoXZHzl4sAPCsq-65" style="edgeStyle=orthogonalEdgeStyle;rounded=0;orthogonalLoop=1;jettySize=auto;html=1;" edge="1" parent="1" source="4K_5-owoXZHzl4sAPCsq-59" target="4K_5-owoXZHzl4sAPCsq-63">
          <mxGeometry relative="1" as="geometry">
            <Array as="points">
              <mxPoint x="980" y="773" />
              <mxPoint x="980" y="613" />
            </Array>
          </mxGeometry>
        </mxCell>
        <mxCell id="4K_5-owoXZHzl4sAPCsq-59" value="Request Approval" style="sketch=0;points=[[0,0,0],[0.25,0,0],[0.5,0,0],[0.75,0,0],[1,0,0],[0,1,0],[0.25,1,0],[0.5,1,0],[0.75,1,0],[1,1,0],[0,0.25,0],[0,0.5,0],[0,0.75,0],[1,0.25,0],[1,0.5,0],[1,0.75,0]];outlineConnect=0;fontColor=#232F3E;fillColor=#ED7100;strokeColor=#ffffff;dashed=0;verticalLabelPosition=bottom;verticalAlign=top;align=center;html=1;fontSize=12;fontStyle=0;aspect=fixed;shape=mxgraph.aws4.resourceIcon;resIcon=mxgraph.aws4.lambda;" vertex="1" parent="1">
          <mxGeometry x="609" y="734" width="78" height="78" as="geometry" />
        </mxCell>
        <mxCell id="4K_5-owoXZHzl4sAPCsq-61" value="Publication Approved Handler" style="sketch=0;points=[[0,0,0],[0.25,0,0],[0.5,0,0],[0.75,0,0],[1,0,0],[0,1,0],[0.25,1,0],[0.5,1,0],[0.75,1,0],[1,1,0],[0,0.25,0],[0,0.5,0],[0,0.75,0],[1,0.25,0],[1,0.5,0],[1,0.75,0]];outlineConnect=0;fontColor=#232F3E;fillColor=#ED7100;strokeColor=#ffffff;dashed=0;verticalLabelPosition=bottom;verticalAlign=top;align=center;html=1;fontSize=12;fontStyle=0;aspect=fixed;shape=mxgraph.aws4.resourceIcon;resIcon=mxgraph.aws4.lambda;" vertex="1" parent="1">
          <mxGeometry x="811" y="574" width="78" height="78" as="geometry" />
        </mxCell>
        <mxCell id="4K_5-owoXZHzl4sAPCsq-62" style="edgeStyle=orthogonalEdgeStyle;rounded=0;orthogonalLoop=1;jettySize=auto;html=1;entryX=1;entryY=0.5;entryDx=0;entryDy=0;entryPerimeter=0;" edge="1" parent="1" source="4K_5-owoXZHzl4sAPCsq-61" target="4K_5-owoXZHzl4sAPCsq-55">
          <mxGeometry relative="1" as="geometry" />
        </mxCell>
        <mxCell id="4K_5-owoXZHzl4sAPCsq-64" style="edgeStyle=orthogonalEdgeStyle;rounded=0;orthogonalLoop=1;jettySize=auto;html=1;" edge="1" parent="1" source="4K_5-owoXZHzl4sAPCsq-63" target="4K_5-owoXZHzl4sAPCsq-61">
          <mxGeometry relative="1" as="geometry" />
        </mxCell>
        <mxCell id="4K_5-owoXZHzl4sAPCsq-69" style="rounded=0;orthogonalLoop=1;jettySize=auto;html=1;" edge="1" parent="1" source="4K_5-owoXZHzl4sAPCsq-63" target="4K_5-owoXZHzl4sAPCsq-15">
          <mxGeometry relative="1" as="geometry" />
        </mxCell>
        <mxCell id="4K_5-owoXZHzl4sAPCsq-70" value="Event: PublicationApprovalRequest" style="edgeLabel;html=1;align=center;verticalAlign=middle;resizable=0;points=[];" vertex="1" connectable="0" parent="4K_5-owoXZHzl4sAPCsq-69">
          <mxGeometry x="-0.1099" y="-1" relative="1" as="geometry">
            <mxPoint x="63" y="-112" as="offset" />
          </mxGeometry>
        </mxCell>
        <mxCell id="4K_5-owoXZHzl4sAPCsq-63" value="Web Event Bus" style="sketch=0;outlineConnect=0;fontColor=#232F3E;gradientColor=none;fillColor=#E7157B;strokeColor=none;dashed=0;verticalLabelPosition=bottom;verticalAlign=top;align=center;html=1;fontSize=12;fontStyle=0;aspect=fixed;pointerEvents=1;shape=mxgraph.aws4.eventbridge_custom_event_bus_resource;" vertex="1" parent="1">
          <mxGeometry x="1080" y="578.5" width="78" height="69" as="geometry" />
        </mxCell>
        <mxCell id="4K_5-owoXZHzl4sAPCsq-66" style="edgeStyle=orthogonalEdgeStyle;rounded=0;orthogonalLoop=1;jettySize=auto;html=1;entryX=0.5;entryY=1;entryDx=0;entryDy=0;entryPerimeter=0;" edge="1" parent="1" source="4K_5-owoXZHzl4sAPCsq-59" target="4K_5-owoXZHzl4sAPCsq-55">
          <mxGeometry relative="1" as="geometry" />
        </mxCell>
        <mxCell id="4K_5-owoXZHzl4sAPCsq-68" value="Web Service" style="text;strokeColor=none;fillColor=none;html=1;fontSize=24;fontStyle=1;verticalAlign=middle;align=center;movable=0;resizable=0;rotatable=0;deletable=0;editable=0;locked=1;connectable=0;" vertex="1" parent="1">
          <mxGeometry x="160" y="480" width="100" height="40" as="geometry" />
        </mxCell>
        <mxCell id="4K_5-owoXZHzl4sAPCsq-78" value="Property Images&amp;nbsp;" style="sketch=0;points=[[0,0,0],[0.25,0,0],[0.5,0,0],[0.75,0,0],[1,0,0],[0,1,0],[0.25,1,0],[0.5,1,0],[0.75,1,0],[1,1,0],[0,0.25,0],[0,0.5,0],[0,0.75,0],[1,0.25,0],[1,0.5,0],[1,0.75,0]];outlineConnect=0;fontColor=#232F3E;fillColor=#7AA116;strokeColor=#ffffff;dashed=0;verticalLabelPosition=bottom;verticalAlign=top;align=center;html=1;fontSize=12;fontStyle=0;aspect=fixed;shape=mxgraph.aws4.resourceIcon;resIcon=mxgraph.aws4.s3;" vertex="1" parent="1">
          <mxGeometry x="1630" y="660" width="78" height="78" as="geometry" />
        </mxCell>
        <mxCell id="4K_5-owoXZHzl4sAPCsq-79" value="Upload (Workshop) Images" style="sketch=0;points=[[0,0,0],[0.25,0,0],[0.5,0,0],[0.75,0,0],[1,0,0],[0,1,0],[0.25,1,0],[0.5,1,0],[0.75,1,0],[1,1,0],[0,0.25,0],[0,0.5,0],[0,0.75,0],[1,0.25,0],[1,0.5,0],[1,0.75,0]];outlineConnect=0;fontColor=#232F3E;fillColor=#ED7100;strokeColor=#ffffff;dashed=0;verticalLabelPosition=bottom;verticalAlign=top;align=center;html=1;fontSize=12;fontStyle=0;aspect=fixed;shape=mxgraph.aws4.resourceIcon;resIcon=mxgraph.aws4.lambda;" vertex="1" parent="1">
          <mxGeometry x="1781" y="660" width="78" height="78" as="geometry" />
        </mxCell>
        <mxCell id="4K_5-owoXZHzl4sAPCsq-80" value="Parameters: Namespaces" style="sketch=0;outlineConnect=0;fontColor=#232F3E;gradientColor=none;fillColor=#E7157B;strokeColor=none;dashed=0;verticalLabelPosition=bottom;verticalAlign=top;align=center;html=1;fontSize=12;fontStyle=0;aspect=fixed;pointerEvents=1;shape=mxgraph.aws4.parameter_store;" vertex="1" parent="1">
          <mxGeometry x="1940" y="660" width="75" height="78" as="geometry" />
        </mxCell>
        <mxCell id="4K_5-owoXZHzl4sAPCsq-87" style="edgeStyle=orthogonalEdgeStyle;rounded=0;orthogonalLoop=1;jettySize=auto;html=1;" edge="1" parent="1" source="4K_5-owoXZHzl4sAPCsq-83" target="4K_5-owoXZHzl4sAPCsq-52">
          <mxGeometry relative="1" as="geometry">
            <Array as="points">
              <mxPoint y="630" />
              <mxPoint y="630" />
            </Array>
          </mxGeometry>
        </mxCell>
        <mxCell id="4K_5-owoXZHzl4sAPCsq-91" value="Search Properties" style="edgeLabel;html=1;align=center;verticalAlign=middle;resizable=0;points=[];" vertex="1" connectable="0" parent="4K_5-owoXZHzl4sAPCsq-87">
          <mxGeometry x="-0.2763" y="-3" relative="1" as="geometry">
            <mxPoint x="11" y="-3" as="offset" />
          </mxGeometry>
        </mxCell>
        <mxCell id="4K_5-owoXZHzl4sAPCsq-83" value="App User" style="sketch=0;outlineConnect=0;fontColor=#232F3E;gradientColor=none;fillColor=#232F3D;strokeColor=none;dashed=0;verticalLabelPosition=bottom;verticalAlign=top;align=center;html=1;fontSize=12;fontStyle=0;aspect=fixed;pointerEvents=1;shape=mxgraph.aws4.user;" vertex="1" parent="1">
          <mxGeometry x="-120" y="578.5" width="78" height="78" as="geometry" />
        </mxCell>
        <mxCell id="4K_5-owoXZHzl4sAPCsq-85" style="edgeStyle=orthogonalEdgeStyle;rounded=0;orthogonalLoop=1;jettySize=auto;html=1;" edge="1" parent="1" source="4K_5-owoXZHzl4sAPCsq-84" target="4K_5-owoXZHzl4sAPCsq-1">
          <mxGeometry relative="1" as="geometry" />
        </mxCell>
        <mxCell id="4K_5-owoXZHzl4sAPCsq-88" value="Create/Update Contracts" style="edgeLabel;html=1;align=center;verticalAlign=middle;resizable=0;points=[];" vertex="1" connectable="0" parent="4K_5-owoXZHzl4sAPCsq-85">
          <mxGeometry x="0.1691" y="-1" relative="1" as="geometry">
            <mxPoint x="-26" y="-10" as="offset" />
          </mxGeometry>
        </mxCell>
        <mxCell id="4K_5-owoXZHzl4sAPCsq-84" value="Company Agent" style="sketch=0;outlineConnect=0;fontColor=#232F3E;gradientColor=none;fillColor=#232F3D;strokeColor=none;dashed=0;verticalLabelPosition=bottom;verticalAlign=top;align=center;html=1;fontSize=12;fontStyle=0;aspect=fixed;pointerEvents=1;shape=mxgraph.aws4.authenticated_user;" vertex="1" parent="1">
          <mxGeometry x="-120" y="150" width="78" height="78" as="geometry" />
        </mxCell>
        <mxCell id="4K_5-owoXZHzl4sAPCsq-86" style="edgeStyle=orthogonalEdgeStyle;rounded=0;orthogonalLoop=1;jettySize=auto;html=1;entryX=0;entryY=0.5;entryDx=0;entryDy=0;entryPerimeter=0;" edge="1" parent="1" source="4K_5-owoXZHzl4sAPCsq-84" target="4K_5-owoXZHzl4sAPCsq-52">
          <mxGeometry relative="1" as="geometry" />
        </mxCell>
        <mxCell id="4K_5-owoXZHzl4sAPCsq-90" value="Approve Property Listing" style="edgeLabel;html=1;align=center;verticalAlign=middle;resizable=0;points=[];" vertex="1" connectable="0" parent="4K_5-owoXZHzl4sAPCsq-86">
          <mxGeometry x="0.0579" relative="1" as="geometry">
            <mxPoint as="offset" />
          </mxGeometry>
        </mxCell>
        <mxCell id="4K_5-owoXZHzl4sAPCsq-92" value="Web Schema&lt;div&gt;Registry&lt;/div&gt;" style="sketch=0;outlineConnect=0;fontColor=#232F3E;gradientColor=none;fillColor=#E7157B;strokeColor=none;dashed=0;verticalLabelPosition=bottom;verticalAlign=top;align=center;html=1;fontSize=12;fontStyle=0;aspect=fixed;pointerEvents=1;shape=mxgraph.aws4.eventbridge_schema_registry;" vertex="1" parent="1">
          <mxGeometry x="1080" y="710" width="78" height="78" as="geometry" />
        </mxCell>
        <mxCell id="4K_5-owoXZHzl4sAPCsq-93" value="Web Schema&lt;div&gt;Registry&lt;/div&gt;" style="sketch=0;outlineConnect=0;fontColor=#232F3E;gradientColor=none;fillColor=#E7157B;strokeColor=none;dashed=0;verticalLabelPosition=bottom;verticalAlign=top;align=center;html=1;fontSize=12;fontStyle=0;aspect=fixed;pointerEvents=1;shape=mxgraph.aws4.eventbridge_schema_registry;" vertex="1" parent="1">
          <mxGeometry x="1210" y="270" width="78" height="78" as="geometry" />
        </mxCell>
        <mxCell id="4K_5-owoXZHzl4sAPCsq-95" value="Shared/Supplimentary Services" style="text;strokeColor=none;fillColor=none;html=1;fontSize=24;fontStyle=1;verticalAlign=middle;align=center;" vertex="1" parent="1">
          <mxGeometry x="1750" y="580" width="100" height="40" as="geometry" />
        </mxCell>
        <mxCell id="4K_5-owoXZHzl4sAPCsq-97" value="Properties Schema&lt;div&gt;Registry&lt;/div&gt;" style="sketch=0;outlineConnect=0;fontColor=#232F3E;gradientColor=none;fillColor=#E7157B;strokeColor=none;dashed=0;verticalLabelPosition=bottom;verticalAlign=top;align=center;html=1;fontSize=12;fontStyle=0;aspect=fixed;pointerEvents=1;shape=mxgraph.aws4.eventbridge_schema_registry;" vertex="1" parent="1">
          <mxGeometry x="1650" y="390" width="78" height="78" as="geometry" />
        </mxCell>
      </root>
    </mxGraphModel>
  </diagram>
</mxfile>
